<svg width="18" height="18" viewBox="0 0 18 18" fill="none" xmlns="http://www.w3.org/2000/svg">
<path fill-rule="evenodd" clip-rule="evenodd" d="M16.7637 0.778441C17.0249 0.778603 17.2754 0.882446 17.4601 1.06716C17.6448 1.25187 17.7487 1.50235 17.7488 1.76358L17.7488 12.9161C17.7535 13.0484 17.7315 13.1803 17.6841 13.3039C17.6367 13.4275 17.5648 13.5402 17.4729 13.6355C17.381 13.7307 17.2708 13.8065 17.1489 13.8582C17.0271 13.9099 16.8961 13.9366 16.7637 13.9366C16.6313 13.9366 16.5003 13.9099 16.3784 13.8582C16.2566 13.8065 16.1464 13.7307 16.0545 13.6355C15.9625 13.5402 15.8907 13.4275 15.8433 13.3039C15.7959 13.1803 15.7739 13.0484 15.7785 12.9161L15.7785 4.14278L2.59071 17.3306C2.40585 17.5155 2.15512 17.6193 1.89368 17.6193C1.63224 17.6193 1.38151 17.5155 1.19665 17.3306C1.01178 17.1457 0.907929 16.895 0.907929 16.6336C0.907929 16.3721 1.01178 16.1214 1.19665 15.9366L14.3845 2.74872L5.61118 2.74872C5.47889 2.75338 5.34701 2.73136 5.22341 2.68396C5.09981 2.63655 4.98702 2.56474 4.89178 2.4728C4.79654 2.38086 4.72079 2.27068 4.66905 2.14883C4.61732 2.02698 4.59066 1.89595 4.59066 1.76358C4.59066 1.6312 4.61732 1.50018 4.66905 1.37833C4.72079 1.25648 4.79654 1.1463 4.89178 1.05436C4.98702 0.962419 5.09981 0.890604 5.22341 0.843199C5.34701 0.795794 5.47889 0.77377 5.61118 0.77844L16.7637 0.778441Z" fill="#EEEEEE"/>
</svg>
