<svg width="26" height="26" viewBox="0 0 26 26" fill="none" xmlns="http://www.w3.org/2000/svg">
<path d="M21.48 10.5248L24.5632 11.0288C24.6853 11.0489 24.7962 11.1118 24.8763 11.2061C24.9563 11.3005 25.0001 11.4203 25 11.544V14.4128C24.9999 14.5356 24.9566 14.6544 24.8776 14.7483C24.7986 14.8422 24.6889 14.9053 24.568 14.9264L21.48 15.4688C21.3019 16.0896 21.0571 16.6821 20.7456 17.2464L22.5712 19.7808C22.644 19.8814 22.6785 20.0047 22.6685 20.1284C22.6585 20.2522 22.6048 20.3683 22.5168 20.456L20.488 22.4848C20.4013 22.5718 20.2867 22.6255 20.1644 22.6363C20.042 22.6471 19.9198 22.6145 19.8192 22.544L17.2592 20.7472C16.6923 21.0619 16.0924 21.3131 15.4704 21.496L14.9264 24.5696C14.9049 24.6905 14.8415 24.8 14.7472 24.8787C14.653 24.9574 14.534 25.0004 14.4112 25H11.544C11.4207 25.0001 11.3013 24.9564 11.2073 24.8767C11.1132 24.797 11.0505 24.6865 11.0304 24.5648L10.52 21.5072C9.89542 21.3263 9.29281 21.0768 8.7232 20.7632L6.1824 22.544C6.08179 22.6145 5.95955 22.6471 5.83721 22.6363C5.71486 22.6255 5.60027 22.5718 5.5136 22.4848L3.4832 20.456C3.39697 20.3681 3.34418 20.2528 3.33395 20.1301C3.32372 20.0074 3.35671 19.885 3.4272 19.784L5.224 17.272C4.90696 16.6997 4.65474 16.0938 4.472 15.4656L1.4304 14.9264C1.30976 14.905 1.20051 14.8418 1.12182 14.7479C1.04312 14.6539 0.999992 14.5353 1 14.4128V11.544C1 11.288 1.184 11.0704 1.4368 11.0288L4.4784 10.5216C4.66293 9.89227 4.9136 9.29067 5.2304 8.7168L3.4544 6.1792C3.38437 6.07873 3.35193 5.95683 3.36275 5.83484C3.37358 5.71286 3.42698 5.59857 3.5136 5.512L5.544 3.4848C5.63126 3.39743 5.74668 3.34386 5.86973 3.33361C5.99278 3.32335 6.11548 3.35708 6.216 3.4288L8.736 5.2288C9.30453 4.91733 9.9024 4.672 10.5296 4.4928L11.0288 1.4368C11.0489 1.31472 11.1118 1.20376 11.2061 1.12375C11.3005 1.04373 11.4203 0.999872 11.544 1H14.4128C14.6672 1 14.8832 1.1824 14.928 1.432L15.4656 4.504C16.0896 4.68427 16.6869 4.93227 17.2576 5.248L19.7824 3.432C19.8828 3.35901 20.006 3.32423 20.1297 3.33391C20.2535 3.34359 20.3697 3.39709 20.4576 3.4848L22.4864 5.5136C22.5732 5.60047 22.6265 5.71516 22.6371 5.8375C22.6476 5.95984 22.6147 6.08197 22.544 6.1824L20.744 8.7472C21.0533 9.31253 21.2987 9.90453 21.48 10.5232V10.5248ZM9.3456 13C9.3456 13.9688 9.73045 14.8979 10.4155 15.5829C11.1005 16.268 12.0296 16.6528 12.9984 16.6528C13.9672 16.6528 14.8963 16.268 15.5813 15.5829C16.2664 14.8979 16.6512 13.9688 16.6512 13C16.6512 12.0312 16.2664 11.1021 15.5813 10.4171C14.8963 9.73205 13.9672 9.3472 12.9984 9.3472C12.0296 9.3472 11.1005 9.73205 10.4155 10.4171C9.73045 11.1021 9.3456 12.0312 9.3456 13Z" stroke="#111827" stroke-width="1.5"/>
</svg>
