<svg width="28" height="28" viewBox="0 0 28 28" fill="none" xmlns="http://www.w3.org/2000/svg">
<path d="M14 19.3333C15.4145 19.3333 16.7711 18.7714 17.7713 17.7712C18.7715 16.771 19.3334 15.4145 19.3334 14C19.3334 12.5855 18.7715 11.229 17.7713 10.2288C16.7711 9.22857 15.4145 8.66667 14 8.66667C12.5855 8.66667 11.229 9.22857 10.2288 10.2288C9.22859 11.229 8.66669 12.5855 8.66669 14C8.66669 15.4145 9.22859 16.771 10.2288 17.7712C11.229 18.7714 12.5855 19.3333 14 19.3333Z" stroke="#111827" stroke-width="2.5" stroke-linecap="round" stroke-linejoin="round"/>
<path d="M2 19.3333V8.66667C2 6.89856 2.70238 5.20286 3.95262 3.95262C5.20286 2.70238 6.89856 2 8.66667 2H19.3333C21.1014 2 22.7971 2.70238 24.0474 3.95262C25.2976 5.20286 26 6.89856 26 8.66667V19.3333C26 21.1014 25.2976 22.7971 24.0474 24.0474C22.7971 25.2976 21.1014 26 19.3333 26H8.66667C6.89856 26 5.20286 25.2976 3.95262 24.0474C2.70238 22.7971 2 21.1014 2 19.3333Z" stroke="#111827" stroke-width="2.5"/>
<path d="M21.3333 6.68L21.3466 6.66533" stroke="#111827" stroke-width="2.5" stroke-linecap="round" stroke-linejoin="round"/>
</svg>
