<svg width="13" height="20" viewBox="0 0 13 20" fill="none" xmlns="http://www.w3.org/2000/svg">
<path d="M8.009 0.00375533L8.00959 0.0115454C8.0421 0.00907683 8.07521 0.00785162 8.10835 0.00785162V0.0180473L8.11328 0.00781343C8.12612 0.00782061 8.13889 0.00788338 8.15184 0.00843141V0.00843175L8.15191 0.00843416C8.81298 0.0301994 9.34145 0.578714 9.34145 1.25178C9.34155 1.35041 9.3298 1.44867 9.30646 1.54441L9.30639 1.54481L8.19819 7.42973L8.20587 7.43118L8.21354 7.43262L8.24775 7.43906L11.7689 7.44525C12.2304 7.44865 12.6515 7.71235 12.8597 8.12847C13.068 8.54397 13.0284 9.04252 12.757 9.41978L12.7569 9.41991L5.83161 19.4791C5.8316 19.4791 5.83158 19.4791 5.83156 19.4791C5.59362 19.8097 5.27707 19.9922 4.89206 19.9922C4.72475 19.9923 4.55917 19.9578 4.40545 19.8908L4.40242 19.8978L4.40544 19.8908C3.87648 19.6613 3.57589 19.0916 3.68171 18.5199L3.68173 18.5198L4.80196 11.8269L4.79425 11.8256L4.78655 11.8243L4.74542 11.8174L1.23117 11.7915C0.769691 11.7881 0.348638 11.5244 0.140398 11.1083C-0.0681447 10.6922 -0.0282852 10.1942 0.243102 9.817C0.243113 9.81698 0.243124 9.81697 0.243135 9.81695L7.15979 0.534189L7.1598 0.534193L7.15997 0.533942C7.17971 0.505184 7.20078 0.477393 7.22312 0.450662L7.21823 0.446581L7.22312 0.450661C7.29757 0.361544 7.38397 0.283454 7.4798 0.218668L7.47982 0.218651C7.6505 0.10232 7.79363 0.0292456 8.00964 0.0115417L8.009 0.00375533ZM8.009 0.00375533C7.79112 0.0216127 7.64668 0.0954676 7.47542 0.212196M8.009 0.00375533C8.04171 0.00127134 8.07502 3.91187e-05 8.10835 3.91187e-05L8.10837 0C8.12285 0 8.13738 0 8.15217 0.000625889M7.47542 0.212196L8.15217 0.000625889M7.47542 0.212196C7.37899 0.277393 7.29204 0.355976 7.21712 0.445652C7.19463 0.472572 7.17341 0.50056 7.15353 0.529521L7.47542 0.212196ZM8.15217 0.000625889L8.15217 0.000676175L8.15217 0.000625889ZM8.1108 1.25137V1.24398H8.1074V1.2499L8.10112 1.24716L1.23378 10.5626L1.24006 10.5672L1.24635 10.5718L1.25071 10.5751L6.27587 10.5928L4.88469 18.7472L4.89884 18.7529L11.7665 8.69366L11.7601 8.68925L11.7536 8.68485L11.7486 8.6814L6.7241 8.66426L8.11508 1.25324L8.1108 1.25137Z" fill="black" stroke="#111827" stroke-width="0.015625"/>
</svg>
